# xmcd
#
# Track frame offsets:
#	150
#	9545
#	20497
#	29929
#	39937
#	48519
#	58265
#	68949
#	81620
#
# Disc length: 1316 seconds
#
# Revision: 1
# Processed by: cddbd v1.5.2PL0 Copyright (c) Steve Scherf et al.
# Submitted via: audiograbber 1.83.01
#
DISCID=7f052209
DTITLE=Dolly Parton - Mine
DYEAR=1973
DGENRE=Country
TTITLE0=Mine
TTITLE1=Chas
TTITLE2=When Possession Gets Too Strong
TTITLE3=I'm Doing This For Your Sake
TTITLE4=But You Loved Me Then
TTITLE5=Don't Let It Trouble Your Mind
TTITLE6=More Than Their Share
TTITLE7=Mama say a prayer
TTITLE8=Down From Dover
EXTD=
EXTT0=
EXTT1=
EXTT2=
EXTT3=
EXTT4=
EXTT5=
EXTT6=
EXTT7=
EXTT8=
PLAYORDER=
